<?xml version="1.0" standalone="no"?><!DOCTYPE svg PUBLIC "-//W3C//DTD SVG 1.1//EN" "http://www.w3.org/Graphics/SVG/1.1/DTD/svg11.dtd"><svg t="1592215526669" class="icon" viewBox="0 0 2051 1024" version="1.1" xmlns="http://www.w3.org/2000/svg" p-id="8071" xmlns:xlink="http://www.w3.org/1999/xlink" width="128.1875" height="64"><defs><style type="text/css"></style></defs><path d="M1790.22375974 476.56671241c-55.42731843-82.75391492-135.47179724-110.31274963-191.944184-118.98294449a209.82646165 209.82646165 0 0 0-103.92622205 10.52809401l-306.66944294 111.89970518-4.14156644-0.11611911a93.03041875 93.03041875 0 0 1-53.62747882-19.15958275c-83.6054519-63.86527581-362.63864859-275.80122679-430.47131362-308.66281388-27.24918425-13.198824-50.20197756-12.92788039-68.62614172-6.81229644-34.83560538 11.61186845-49.25367491 53.80165676-29.55220494 85.25046699l274.98839595 363.122477-222.56081068 81.16696011a115.24779348 115.24779348 0 0 1-93.41748075-6.38652759L424.12615347 596.55601909a98.85570569 98.85570569 0 0 0-50.56968684-11.36027754l-33.48088732 1.50954257c-25.79770123 1.16118669-37.699866 33.28735596-19.14022932 51.61475515l209.90387318 207.17508437A128.11761431 128.11761431 0 0 0 658.29883188 877.25358359l1110.17202811-337.82795685c26.24282277-7.97348313 37.21603833-39.77064922 21.75289975-62.85891434z" fill="#2674FD" p-id="8072"></path><path d="M1632.41846867 364.76377363l-67.73589863 24.13333271a11.18609962 11.18609962 0 0 0-4.64474751 17.72745243l42.576851 50.10521187a10.70227194 10.70227194 0 0 0 11.41833712 3.30938289l125.79524016-39.96418058s-35.78390802-43.29291618-107.40978214-55.31119932zM1537.16244219 407.2825651l41.04795431 50.18262412a11.18609962 11.18609962 0 0 1-4.97374998 17.65004018l-46.44747384 15.48249055a10.70227194 10.70227194 0 0 1-11.80539909-3.59967849l-39.13199631-49.73750329a11.18609962 11.18609962 0 0 1 4.89633771-17.4178027l44.60892738-15.86955327a10.70227194 10.70227194 0 0 1 11.80539982 3.3093829z" fill="#FFE41F" p-id="8073"></path></svg>